<svg id="Capa_1" enable-background="new 0 0 512 512" height="512" viewBox="0 0 512 512" width="512" xmlns="http://www.w3.org/2000/svg"><g><path d="m512 256c0 141.385-114.615 256-256 256s-256-114.615-256-256 114.615-256 256-256 256 114.615 256 256z" fill="#86befb"/><path d="m442.514 256c0 103.009-83.505 186.514-186.514 186.514s-186.514-83.505-186.514-186.514 83.505-186.514 186.514-186.514 186.514 83.505 186.514 186.514z" fill="#a7d0fc"/><path d="m327.436 178.49c-3.118 2.726-7.857 2.408-10.583-.71l-33.353-38.152v112.872c0 4.142-3.358 7.5-7.5 7.5s-7.5-3.358-7.5-7.5v-130.03l-33.918-38.798c-2.726-3.118-2.408-7.856.71-10.583s7.857-2.408 10.583.71l82.272 94.108c2.726 3.119 2.408 7.857-.711 10.583z" fill="#1380e2"/><path d="m208.981 256.888c-.889 4.046-4.889 6.605-8.935 5.716l-26.296-5.777v103.173h11.25c8.284 0 15 6.716 15 15v130.856c-61.117-13.638-113.992-49.127-150-97.842v-33.014c0-8.284 6.716-15 15-15h27.5v-212.5c0-4.142 3.358-7.5 7.5-7.5s7.5 3.358 7.5 7.5v212.5h51.25v-106.469l-29.515-6.484c-4.046-.889-6.605-4.889-5.716-8.935s4.889-6.605 8.935-5.716l26.296 5.777v-.673c0-4.142 3.358-7.5 7.5-7.5s7.5 3.358 7.5 7.5v3.969l29.515 6.484c4.046.889 6.605 4.889 5.716 8.935zm261.019 68.112v71.551c-39.871 60.584-104.779 103.229-180 113.21v-79.761h-45c-8.284 0-15-6.716-15-15v-160c0-8.284 6.716-15 15-15h120c8.236 0 14.921 6.637 14.999 14.854l15.408-3.385v-3.969c0-4.142 3.358-7.5 7.5-7.5s7.5 3.358 7.5 7.5v.673l10.125-2.224v-93.578c0-4.142 3.358-7.5 7.5-7.5s7.5 3.358 7.5 7.5v90.283l1.171-.257c4.046-.889 8.046 1.67 8.935 5.716s-1.67 8.046-5.716 8.935l-4.39.964v51.988h19.468c8.284 0 15 6.716 15 15zm-74.593-58.173-15.407 3.384v39.789h15.407zm25.125-5.52-10.125 2.224v46.469h10.125z" fill="#55a4f9"/><path d="m444 368v61.76c-43.81 47.378-105.306 78.161-174 81.864v-143.624c0-16.569 13.431-30 30-30h114c16.569 0 30 13.431 30 30zm-222 21.332h-114c-16.569 0-30 13.431-30 30v20.657c45.179 43.718 106.413 70.945 174 71.98v-92.637c0-16.569-13.431-30-30-30z" fill="#1380e2"/><path d="m270.757 98.462c2.726 3.118 2.408 7.856-.71 10.583l-3.764 3.291c-3.118 2.726-7.857 2.408-10.583-.71l-19.166-21.923c-4.44.339-8.979-1.347-12.136-4.957-5.317-6.082-4.697-15.322 1.385-20.638l.563-.492c6.082-5.317 15.322-4.697 20.638 1.385 2.605 2.98 3.785 6.718 3.595 10.381zm119.243-90.962c0-4.142-3.358-7.5-7.5-7.5s-7.5 3.358-7.5 7.5v52.973c-1.598-.309-3.273-.473-5-.473-11.046 0-20 6.716-20 15s8.954 15 20 15 20-6.716 20-15c0-.465 0-67.5 0-67.5z" fill="#453d83"/><path d="m381 387c0 69.036-55.964 125-125 125s-125-55.964-125-125 55.964-125 125-125 125 55.964 125 125z" fill="#453d83"/><path d="m343.969 475.806c-6.28 6.221-16.969 1.666-16.969-7.174v-.012c0-2.665 1.07-5.213 2.961-7.09 19.454-19.307 31.391-46.178 31.031-75.834-.691-56.887-47.287-103.26-104.177-103.692-31.798-.241-60.357 13.653-79.767 35.774-1.915 2.183-4.656 3.462-7.56 3.462-8.628 0-13.169-10.161-7.479-16.646 22.557-25.707 55.492-42.082 92.261-42.581 69.032-.936 126.254 55.076 126.727 124.112.24 35.077-13.969 66.837-37.028 89.681z" fill="#51489a"/><path d="m361 387c0 57.99-47.01 105-105 105s-105-47.01-105-105 47.01-105 105-105 105 47.01 105 105z" fill="#ffd993"/><path d="m310 405c0 35.898-29.102 65-65 65s-65-29.102-65-65 29.101-65 65-65 65 29.102 65 65z" fill="#fff5f5"/><path d="m278 369.014v8.565c0 1.31-.868 2.461-2.128 2.82l-38.206 10.916v34.498s-.182 6.463-.509 7.166c-1.937 6.036-9.182 10.521-17.825 10.521-10.125 0-18.333-6.156-18.333-13.75s8.208-13.75 18.333-13.75c2.607 0 5.088.408 7.333 1.144v-26.811c0-.13.005-.259.014-.387.265-6.119 4.416-11.42 10.349-13.115l37.231-10.637c1.876-.536 3.741.871 3.741 2.82z" fill="#453d83"/><path d="m278 369.014v56.153c0 6.075-6.566 11-14.667 11-8.1 0-14.667-4.925-14.667-11s6.566-11 14.667-11c1.266 0 2.495.12 3.667.347v-31.579l-9.345 2.67c-4.504 1.287-8.988-2.095-8.988-6.78 0-3.148 2.087-5.915 5.114-6.78l20.48-5.852c1.874-.535 3.739.872 3.739 2.821z" fill="#51489a"/><path d="m80 115v80c0 8.284-6.716 15-15 15h-35c-8.284 0-15-6.716-15-15v-80c0-8.284 6.716-15 15-15h35c8.284 0 15 6.716 15 15z" fill="#453d83"/><path d="m185 115v80c0 8.284-6.716 15-15 15h-105c-8.284 0-15-6.716-15-15v-80c0-8.284 6.716-15 15-15h105c8.284 0 15 6.716 15 15z" fill="#51489a"/><path d="m70 110h15v100h-15zm40 100h15v-100h-15zm40-100v100h15v-100z" fill="#453d83"/><path d="m403.301 175.392c2.556 7.88-1.761 16.34-9.641 18.896l-29.964 9.718c-7.88 2.556-16.34-1.761-18.896-9.641-2.556-7.88 1.761-16.34 9.641-18.896l29.964-9.718c7.88-2.556 16.34 1.761 18.896 9.641zm-356.801-85.392h-31.5c-8.284 0-15 6.716-15 15 0 8.284 6.716 15 15 15h31.5c8.284 0 15-6.716 15-15 0-8.284-6.716-15-15-15z" fill="#ff9f22"/><path d="m511.264 140.376c2.556 7.88-1.761 16.34-9.641 18.896l-107.963 35.016c-7.88 2.556-16.34-1.761-18.896-9.641-2.556-7.88 1.761-16.34 9.641-18.896l107.964-35.015c7.88-2.556 16.34 1.76 18.895 9.64zm-326.264-50.376h-138.5c-8.284 0-15 6.716-15 15 0 8.284 6.716 15 15 15h138.5c8.284 0 15-6.716 15-15 0-8.284-6.716-15-15-15z" fill="#ffc14f"/><path d="m336.792 100.894-8.65 4.731c-.336.184-.612.459-.795.795l-4.731 8.65c-.759 1.387-2.751 1.387-3.509 0l-4.731-8.65c-.184-.336-.459-.612-.795-.795l-8.65-4.731c-1.387-.759-1.387-2.751 0-3.51l8.65-4.731c.336-.184.611-.459.795-.795l4.731-8.65c.759-1.387 2.751-1.387 3.509 0l4.731 8.65c.184.336.459.612.795.795l8.65 4.731c1.387.76 1.387 2.751 0 3.51zm158.279 128.212-8.65-4.731c-.336-.184-.612-.459-.795-.795l-4.731-8.65c-.759-1.387-2.751-1.387-3.509 0l-4.731 8.65c-.184.336-.459.612-.795.795l-8.65 4.731c-1.387.759-1.387 2.751 0 3.51l8.65 4.731c.336.184.612.459.795.795l4.731 8.65c.759 1.387 2.751 1.387 3.509 0l4.731-8.65c.184-.336.459-.612.795-.795l8.65-4.731c1.387-.76 1.387-2.751 0-3.51zm-370 58.279-15.115-8.267c-.336-.184-.612-.459-.795-.795l-8.267-15.115c-.759-1.387-2.751-1.387-3.509 0l-8.267 15.115c-.184.335-.459.611-.795.795l-15.115 8.267c-1.387.759-1.387 2.751 0 3.509l15.115 8.267c.336.184.612.459.795.795l8.267 15.115c.759 1.387 2.751 1.387 3.509 0l8.267-15.115c.184-.336.459-.612.795-.795l15.115-8.267c1.387-.759 1.387-2.751 0-3.509zm216.84-31.224v-45c0-4.142-3.358-7.5-7.5-7.5-4.142 0-7.5 3.358-7.5 7.5v45c0 4.142 3.358 7.5 7.5 7.5 4.142 0 7.5-3.358 7.5-7.5zm25.303 17.981 17.678-17.678c2.929-2.929 2.929-7.678 0-10.607-2.929-2.929-7.678-2.929-10.607 0l-17.678 17.678c-2.929 2.929-2.929 7.678 0 10.607 2.93 2.929 7.679 2.929 10.607 0z" fill="#fff5f5"/></g></svg>