<?xml version="1.0" encoding="iso-8859-1"?>
<!-- Generator: Adobe Illustrator 19.0.0, SVG Export Plug-In . SVG Version: 6.00 Build 0)  -->
<svg version="1.1" id="Capa_1" xmlns="http://www.w3.org/2000/svg" xmlns:xlink="http://www.w3.org/1999/xlink" x="0px" y="0px"
	 viewBox="0 0 341.421 341.421" style="enable-background:new 0 0 341.421 341.421;" xml:space="preserve">
<g id="XMLID_1054_">
	<g id="XMLID_1055_">
		<path id="XMLID_1056_" style="fill:#006DF0;" d="M180,190c0,16.568-13.432,30-30,30l0,0c-16.568,0-30-13.432-30-30v-15
			c0-16.568,13.432-30,30-30l0,0c16.568,0,30,13.432,30,30V190z"/>
		<circle id="XMLID_1057_" style="fill:#FFDA44;" cx="150" cy="80" r="80"/>
		<rect id="XMLID_1058_" x="110" y="135" style="fill:#FFDA44;" width="80" height="40"/>
		<rect id="XMLID_1059_" x="110" y="170" style="fill:#0052B4;" width="40" height="25"/>
		<rect id="XMLID_1060_" x="150" y="170" style="fill:#006DF0;" width="40" height="25"/>
		<path id="XMLID_1061_" style="fill:#FFF0B4;" d="M150,140c33.137,0,60-26.863,60-60s-26.863-60-60-60"/>
	</g>
	<g id="XMLID_1062_">
		<path id="XMLID_33_" style="fill:#006DF0;" d="M58.076,78.076c7.075,7.075,16.769,16.77,28.284,28.284
			c35.147-35.147,92.132-35.147,127.279,0c35.147,35.147,35.147,92.132,0,127.279c42.095,42.095,80.517,80.517,98.995,98.995
			c11.716-11.716,11.715-30.711,0-42.427l-51.962-51.962c30.964-50.117,24.718-116.703-18.749-160.17
			C191.156,27.309,108.845,27.308,58.076,78.076z"/>
		<path id="XMLID_32_" style="fill:#0052B4;" d="M86.36,233.64c-35.147-35.147-35.147-92.132,0-127.279
			C74.846,94.846,65.151,85.151,58.076,78.076c-50.768,50.768-50.768,133.08,0,183.848c43.467,43.467,110.053,49.712,160.17,18.749
			l51.962,51.962c11.716,11.715,30.711,11.716,42.427,0c-18.478-18.478-56.9-56.9-98.995-98.995
			C178.492,268.787,121.508,268.787,86.36,233.64z"/>
	</g>
</g>
<g>
</g>
<g>
</g>
<g>
</g>
<g>
</g>
<g>
</g>
<g>
</g>
<g>
</g>
<g>
</g>
<g>
</g>
<g>
</g>
<g>
</g>
<g>
</g>
<g>
</g>
<g>
</g>
<g>
</g>
</svg>
