<svg height="512" viewBox="0 0 59 58" width="512" xmlns="http://www.w3.org/2000/svg"><g id="Page-1" fill="none" fill-rule="evenodd"><g id="019---Technology-Engineering" transform="translate(0 -1)"><g fill="#bdc3c7"><path id="Path" d="m36 17h-7c-.5522847 0-1-.4477153-1-1s.4477153-1 1-1h7c.5522847 0 1-.4477153 1-1v-7c0-.55228475.4477153-1 1-1s1 .44771525 1 1v7c0 1.6568542-1.3431458 3-3 3z"/><path id="Path" d="m41 21h-12c-.5522847 0-1-.4477153-1-1s.4477153-1 1-1h12c.5522847 0 1 .4477153 1 1s-.4477153 1-1 1z"/><path id="Path" d="m38 54c-.5522847 0-1-.4477153-1-1v-7c0-.5522847-.4477153-1-1-1h-7c-.5522847 0-1-.4477153-1-1s.4477153-1 1-1h7c1.6568542 0 3 1.3431458 3 3v7c0 .5522847-.4477153 1-1 1z"/><path id="Path" d="m41 41h-12c-.5522847 0-1-.4477153-1-1s.4477153-1 1-1h12c.5522847 0 1 .4477153 1 1s-.4477153 1-1 1z"/><path id="Path" d="m54 31h-25c-.5522847 0-1-.4477153-1-1s.4477153-1 1-1h25c.5522847 0 1 .4477153 1 1s-.4477153 1-1 1z"/><path id="Path" d="m48 44c-.5522847 0-1-.4477153-1-1v-6c0-.5522847-.4477153-1-1-1h-17c-.5522847 0-1-.4477153-1-1s.4477153-1 1-1h17c1.6568542 0 3 1.3431458 3 3v6c0 .5522847-.4477153 1-1 1z"/><path id="Path" d="m46 26h-17c-.5522847 0-1-.4477153-1-1s.4477153-1 1-1h17c.5522847 0 1-.4477153 1-1v-6c0-.5522847.4477153-1 1-1s1 .4477153 1 1v6c0 1.6568542-1.3431458 3-3 3z"/></g><path id="Path" d="m10 30c-.00134749 10.1187628 7.9228253 18.4657808 18.028 18.99.5399582.0182517.9690861.4597412.972 1v8.01c-.0015832.2745665-.1152127.5365807-.3145781.7253736-.1993653.1887929-.4671763.2879914-.7414219.2746264-.56-.024-1.116-.066-1.664-.128-.7910902-.0991947-1.4200251-.7117936-1.54-1.5l-.63-3.853c-2.9464495-.6085787-5.74984-1.7733773-8.26-3.432l-3.18 2.281c-.6444361.4740999-1.5244533.4659516-2.16-.02-.69-.58-1.36-1.18-2.01-1.831-.64432701-.640371-1.25514104-1.3136015-1.83-2.017-.48695059-.6359486-.49510233-1.5171517-.02-2.162l2.28-3.178c-1.65764203-2.5126416-2.82170407-5.3179293-3.43-8.266l-3.85-.631c-.79940113-.1333164-1.4124247-.782304-1.5-1.588-.19687134-1.7946169-.19687134-3.6053831 0-5.4.09910158-.7913232.71163621-1.4206004 1.5-1.541l3.85-.63c.60829593-2.9480707 1.77235797-5.7533584 3.43-8.266l-2.28-3.18c-.47309886-.6440232-.46495398-1.5228559.02-2.158.56957007-.7069877 1.18064699-1.3795062 1.83-2.014.63807996-.64479432 1.30896992-1.25627213 2.01-1.832.6355467-.48595157 1.5155639-.49409987 2.16-.02l3.18 2.282c2.5103269-1.65851982 5.3136314-2.82362205 8.26-3.433l.63-3.852c.1223231-.78918372.7487048-1.40417667 1.54-1.512.5466667-.05466667 1.1023333-.09433333 1.667-.119.2738151-.0128098.5410005.08666887.7397664.27543044.198766.18876157.3118982.45045819.3132336.72456956v8.012c-.0029139.5402588-.4320418.9817483-.972 1-10.1044028.5241792-18.02828307 8.8700101-18.028 18.988z" fill="#3b97d3"/><path id="Path" d="m29 44.044c.0024087.2515835-.0985449.4931298-.2792624.6681762s-.4253587.2682499-.6767376.2578238c-7.9002743-.5004081-14.0517912-7.0538935-14.0517912-14.97s6.1515169-14.4695919 14.0517912-14.97c.2513789-.0104261.4960201.0827774.6767376.2578238s.2816711.4165927.2792624.6681762z" fill="#285680"/><path id="Path" d="m38 8c-1.6568542 0-3-1.34314575-3-3s1.3431458-3 3-3 3 1.34314575 3 3c0 .79564947-.3160705 1.55871121-.8786797 2.12132034-.5626091.56260914-1.3256708.87867966-2.1213203.87867966z" fill="#26b99a"/><path id="Path" d="m38 58c-1.6568542 0-3-1.3431458-3-3s1.3431458-3 3-3 3 1.3431458 3 3-1.3431458 3-3 3z" fill="#26b99a"/><path id="Path" d="m48 48c-1.6568542 0-3-1.3431458-3-3s1.3431458-3 3-3 3 1.3431458 3 3-1.3431458 3-3 3z" fill="#26b99a"/><path id="Path" d="m56 33c-1.6568542 0-3-1.3431458-3-3s1.3431458-3 3-3 3 1.3431458 3 3-1.3431458 3-3 3z" fill="#26b99a"/><path id="Path" d="m48 18c-1.6568542 0-3-1.3431458-3-3s1.3431458-3 3-3 3 1.3431458 3 3-1.3431458 3-3 3z" fill="#26b99a"/></g></g></svg>